<svg width="60" height="60" viewBox="0 0 60 60" fill="none" xmlns="http://www.w3.org/2000/svg">
<path d="M44.5 16.5C44.5 6 37 2 29.5 2C18.7 2 15 11 15 16.5C15 22.0748 16.2505 25.1486 18.373 27.4249C18.8699 27.9578 18.7516 28.8534 18.117 29.2114C11.6459 32.8618 1.94978 42.6281 1.51514 56.9967C1.49844 57.5487 1.94771 58 2.5 58H29.5H57.5062C58.0584 58 58.5016 57.5481 58.4841 56.9961C58.0201 42.3955 47.5108 32.9636 41.0204 29.2925C40.3527 28.9148 40.2535 27.912 40.7656 27.3407C42.4534 25.4579 44.5 21.8283 44.5 16.5Z" stroke="black" stroke-width="3"/>
</svg>
