<svg width="70" height="58" viewBox="0 0 70 58" fill="none" xmlns="http://www.w3.org/2000/svg">
<path d="M13.5 12H3C2.44772 12 2 12.4477 2 13V55.5C2 56.0523 2.44771 56.5 3 56.5H56C56.5523 56.5 57 56.0523 57 55.5V45.5M13.5 12H56C56.5523 12 57 12.4477 57 13V45.5M13.5 12V2.5C13.5 1.94772 13.9477 1.5 14.5 1.5H67C67.5523 1.5 68 1.94772 68 2.5V44.5C68 45.0523 67.5523 45.5 67 45.5H57M11 41C14.4479 36.0744 19.3515 26.2965 25.7109 27.9186C25.8987 27.9666 26.0694 28.0788 26.1844 28.2349C28.3179 31.1314 24.9607 33.5786 23.5 36.5C22.1548 39.1905 24 44.5 30.5 38C33.2919 35.2081 35 31.5 38 32.5C39.6971 33.0657 39.6667 35.5 39.5 36.5C39.1157 38.806 42.6 39.1 49 34.5" stroke="black" stroke-width="3" stroke-linecap="round"/>
</svg>
