<svg width="62" height="60" viewBox="0 0 62 60" fill="none" xmlns="http://www.w3.org/2000/svg">
<path d="M54.1248 1.55802L6.32714 8.94941C6.15191 8.97651 6.03828 9.14887 6.08244 9.3206L10.4036 26.1253C10.4525 26.3151 10.3091 26.5 10.1131 26.5H1.91872C1.71324 26.5 1.56857 26.7019 1.63465 26.8965L10.4209 52.7672C10.4669 52.9026 10.602 52.9867 10.7438 52.9682L33.1612 50.0442C33.3408 50.0208 33.5 50.1606 33.5 50.3417V57.55C33.5 57.7641 33.7178 57.9093 33.9154 57.8269L57.3377 48.0676C57.4379 48.0259 57.5078 47.9332 57.5203 47.8254L59.9611 26.8347C59.9818 26.6564 59.8425 26.5 59.6631 26.5H52.825C52.6498 26.5 52.5119 26.3506 52.5259 26.1761L54.4697 1.87841C54.4852 1.68531 54.3163 1.52841 54.1248 1.55802Z" stroke="black" stroke-width="3"/>
</svg>
