<svg width="275" height="39" viewBox="0 0 275 39" fill="none" xmlns="http://www.w3.org/2000/svg">
<path d="M53.548 1.34L44.552 38H32.02L26.976 15.536L21.828 38H9.296L0.404 1.34H11.428L15.692 26.404L21.464 1.34H32.644L38.26 26.196L42.524 1.34H53.548ZM69.1049 9.504V15.484H80.8049V23.232H69.1049V29.836H82.3649V38H58.9129V1.34H82.3649V9.504H69.1049ZM111.841 19.176C113.991 19.6613 115.689 20.736 116.937 22.4C118.22 24.0293 118.861 25.9013 118.861 28.016C118.861 31.136 117.787 33.58 115.637 35.348C113.488 37.116 110.472 38 106.589 38H88.4412V1.34H106.017C109.761 1.34 112.691 2.172 114.805 3.836C116.955 5.5 118.029 7.84 118.029 10.856C118.029 13.0053 117.457 14.808 116.313 16.264C115.204 17.6853 113.713 18.656 111.841 19.176ZM98.6332 15.9H103.781C106.347 15.9 107.629 14.8427 107.629 12.728C107.629 10.544 106.347 9.452 103.781 9.452H98.6332V15.9ZM104.561 29.784C107.127 29.784 108.409 28.7093 108.409 26.56C108.409 25.4507 108.063 24.6013 107.369 24.012C106.711 23.4227 105.757 23.128 104.509 23.128H98.6332V29.784H104.561ZM151.98 1.34V9.452H142.204V38H132.012V9.452H122.34V1.34H151.98ZM174.367 38.364C170.935 38.364 167.78 37.5667 164.903 35.972C162.025 34.3427 159.737 32.1067 158.039 29.264C156.375 26.3867 155.543 23.1453 155.543 19.54C155.543 15.9347 156.375 12.7107 158.039 9.868C159.737 6.99067 162.025 4.75467 164.903 3.16C167.78 1.56533 170.935 0.767999 174.367 0.767999C177.833 0.767999 180.988 1.56533 183.831 3.16C186.708 4.75467 188.979 6.99067 190.643 9.868C192.307 12.7107 193.139 15.9347 193.139 19.54C193.139 23.1453 192.307 26.3867 190.643 29.264C188.979 32.1067 186.708 34.3427 183.831 35.972C180.953 37.5667 177.799 38.364 174.367 38.364ZM174.367 28.9C176.967 28.9 179.012 28.0507 180.503 26.352C182.028 24.6533 182.791 22.3827 182.791 19.54C182.791 16.628 182.028 14.34 180.503 12.676C179.012 10.9773 176.967 10.128 174.367 10.128C171.732 10.128 169.669 10.9773 168.179 12.676C166.688 14.34 165.943 16.628 165.943 19.54C165.943 22.4173 166.688 24.7053 168.179 26.404C169.669 28.068 171.732 28.9 174.367 28.9ZM216.336 38.364C212.904 38.364 209.75 37.5667 206.872 35.972C203.995 34.3427 201.707 32.1067 200.008 29.264C198.344 26.3867 197.512 23.1453 197.512 19.54C197.512 15.9347 198.344 12.7107 200.008 9.868C201.707 6.99067 203.995 4.75467 206.872 3.16C209.75 1.56533 212.904 0.767999 216.336 0.767999C219.803 0.767999 222.958 1.56533 225.8 3.16C228.678 4.75467 230.948 6.99067 232.612 9.868C234.276 12.7107 235.108 15.9347 235.108 19.54C235.108 23.1453 234.276 26.3867 232.612 29.264C230.948 32.1067 228.678 34.3427 225.8 35.972C222.923 37.5667 219.768 38.364 216.336 38.364ZM216.336 28.9C218.936 28.9 220.982 28.0507 222.472 26.352C223.998 24.6533 224.76 22.3827 224.76 19.54C224.76 16.628 223.998 14.34 222.472 12.676C220.982 10.9773 218.936 10.128 216.336 10.128C213.702 10.128 211.639 10.9773 210.148 12.676C208.658 14.34 207.912 16.628 207.912 19.54C207.912 22.4173 208.658 24.7053 210.148 26.404C211.639 28.068 213.702 28.9 216.336 28.9ZM274.686 38H264.494L250.922 17.512V38H240.73V1.34H250.922L264.494 22.088V1.34H274.686V38Z" fill="black"/>
</svg>
